/vscmnt/brussel_pixiu_data/_data_brussel/112/vsc11236/PredSimResults/SUBJ09opt3D/expIG/worker_13.mot
version=1
nRows=4
nColumns=50
inDegrees=yes
endheader
                time	         pelvis_tilt	         pelvis_list	     pelvis_rotation	           pelvis_tx	           pelvis_ty	           pelvis_tz	       hip_flexion_r	     hip_adduction_r	      hip_rotation_r	        knee_angle_r	       ankle_angle_r	         mtp_angle_r	       hip_flexion_l	     hip_adduction_l	      hip_rotation_l	        knee_angle_l	       ankle_angle_l	         mtp_angle_l	    lumbar_extension	      lumbar_bending	     lumbar_rotation	 ercspn_r/activation	 intobl_r/activation	 extobl_r/activation	    abd_r/activation	    add_r/activation	hamstrings_r/activation	bifemsh_r/activation	glut_max_r/activation	iliopsoas_r/activation	rect_fem_r/activation	  vasti_r/activation	gastroc_r/activation	 soleus_r/activation	tib_ant_r/activation	 ercspn_l/activation	 intobl_l/activation	 extobl_l/activation	    abd_l/activation	    add_l/activation	hamstrings_l/activation	bifemsh_l/activation	glut_max_l/activation	iliopsoas_l/activation	rect_fem_l/activation	  vasti_l/activation	gastroc_l/activation	 soleus_l/activation	tib_ant_l/activation	
          1.00471416	         -6.27451698	         -3.83265268	          9.58006183	          1.80848548	          0.96918718	         -0.00444231	         33.99040809	          0.10913636	         -8.75886769	         -5.27645064	          7.21421295	          0.27429162	        -17.45254241	         -5.40587547	         -0.50937447	         -7.12885146	          1.53705417	         40.47703496	        -11.94647084	          3.33637296	         -8.78875838	          0.09309674	          0.14347296	          0.01591172	          0.04307640	          0.29561188	          0.16393963	          0.23624918	          0.02822571	          0.18992982	          0.00999999	          0.00999999	          0.02955791	          0.00999999	          0.39659536	          0.02677010	          0.00999999	          0.00999999	          0.02531830	          0.02342213	          0.02580538	          0.29866755	          0.01591172	          0.31173524	          0.00999999	          0.00999999	          0.38540821	          0.18512235	          0.01872327	
          1.01476130	         -6.22184193	         -4.01254553	          9.59565458	          1.83111619	          0.96674958	         -0.00403654	         34.12378376	          0.36204566	         -8.91024748	         -7.63985701	          6.52071825	          0.26849750	        -17.76724187	         -5.78618838	         -0.99831994	         -8.81189123	         -0.00035607	         42.52078067	        -11.45701071	          3.72647135	         -8.97237951	          0.07974350	          0.12289406	          0.01362944	          0.06688623	          0.36679594	          0.14042511	          0.20236301	          0.32087566	          0.16268743	          0.00999999	          0.00999999	          0.02531830	          0.01362944	          0.43478533	          0.08421815	          0.00999999	          0.00999999	          0.02168680	          0.11064326	          0.02210401	          0.25582847	          0.01362944	          0.46939819	          0.00999999	          0.00999999	          0.33012757	          0.15856951	          0.01603772	
          1.02480844	         -6.15555976	         -4.19286823	          9.56183760	          1.85383641	          0.96449744	         -0.00355613	         34.13260043	          0.62293963	         -8.98236462	        -10.01868001	          5.93420070	          0.22202827	        -17.75704417	         -6.16819780	         -1.51029845	        -11.11275313	         -1.51366680	         44.21035923	        -10.97335259	          4.11497503	         -9.10020107	          0.06830557	          0.10526687	          0.01167451	          0.20162159	          0.35762396	          0.12028338	          0.17333728	          0.43198263	          0.13935252	          0.00999999	          0.00999999	          0.02168680	          0.01167451	          0.51413287	          0.09557649	          0.00999999	          0.00999999	          0.01857617	          0.09477325	          0.01893355	          0.21913397	          0.01167451	          0.56545513	          0.00999999	          0.00999999	          0.28277605	          0.13582525	          0.01373736	
          1.03485558	         -6.08023008	         -4.36019487	          9.47894445	          1.87621064	          0.96273763	         -0.00296407	         34.13178329	          0.89962338	         -9.01407702	        -12.33158318	          5.21995601	          0.18580421	        -17.27871792	         -6.55066827	         -2.03078076	        -14.23682407	         -2.90567239	         45.14162939	        -10.54933037	          4.48750871	         -9.17011155	          0.08693458	          0.09016802	          0.00999999	          0.23893236	          0.35340916	          0.10303065	          0.14847482	          0.45298807	          0.11936463	          0.00999999	          0.08668566	          0.01857617	          0.00999999	          0.57018898	          0.13705174	          0.00999999	          0.00999999	          0.01591172	          0.09116813	          0.01621783	          0.18770271	          0.00999999	          0.48434964	          0.00999999	          0.00999999	          0.24221635	          0.11634330	          0.01176696	
